<?xml version="1.0" encoding="UTF-8"?>
<svg viewBox="0 0 612 792" xmlns="http://www.w3.org/2000/svg">
 <defs>
  <linearGradient id="e">
   <stop stop-color="#ff7f00" offset=".042969"/>
   <stop stop-color="#ff7f00" offset=".34375"/>
   <stop stop-color="#f2eae3" stop-opacity=".992" offset=".50391"/>
   <stop stop-color="#ff7f00" stop-opacity=".996" offset=".68359"/>
  </linearGradient>
  <linearGradient id="f" y1=".50618" y2=".50618">
   <stop stop-color="#d2e8ef" stop-opacity=".996" offset="0"/>
   <stop stop-color="#fff" offset=".51953"/>
   <stop stop-color="#9ac5d3" stop-opacity=".992" offset="1"/>
  </linearGradient>
  <linearGradient id="d" x1="-.001609" x2="1.0009" y1=".5" y2=".5">
   <stop stop-color="#6acff6" offset="0"/>
   <stop stop-color="#fff" offset=".82"/>
   <stop stop-color="#6acff6" offset="1"/>
  </linearGradient>
 </defs>
 <g stroke="#000">
  <g stroke-width="2.088">
   <path d="m204.55 322.63l31.824 281.09s57.961 28.872 141.62 1.584l20.88-282.67h-194.33z" fill="url(#f)"/>
   <path d="m198.57 306.21l-2.376 11.232s-3.456 0.79199-0.79199 2.592c2.592 1.872 99.936 17.064 213.91 2.592 0 0 1.584-2.16-0.64798-2.952l-3.487-13.291-206.61-0.173z" fill="url(#d)"/>
  </g>
  <path d="m302.11 297.72c56.952 0 103.54 3.6 103.54 7.92 0 4.392-46.584 7.992-103.54 7.992-57.024 0-103.61-3.6-103.61-7.992 0-4.32 46.584-7.92 103.61-7.92z" fill="#6acff6" stroke-width=".936"/>
  <g stroke-width="1.368">
   <path d="m204.4 306.93s8.136-66.24 68.04-77.4c20.664-1.152 37.656-3.24 63.144 1.44 21.96 4.032 53.28 29.376 63.576 73.8-12.024 15.768-192.31 7.632-194.76 2.16z" fill="#ff7f00"/>
   <path d="m303.33 228.24c16.488 0 30.096 1.44 30.096 3.24 0 1.728-13.607 3.168-30.096 3.168-16.632 0-30.168-1.44-30.168-3.168 0-1.8 13.536-3.24 30.168-3.24z" fill="#e03a3e"/>
  </g>
 </g>
 <g stroke-width="1.368">
  <path d="m324.15 176.56s10.439-0.72 12.527 4.896l-17.928 49.608-8.424-0.072-7.776-0.072 21.601-54.36z" fill="url(#e)" stroke="#e03a3e"/>
  <path d="m274.6 230.19c3.024-3.024 9.288-16.128 14.184-16.128 2.376-4.752 10.728-3.384 13.824 0 2.16 0 4.536-0.36 7.056-0.504 0.86398 0 1.728 1.008 2.52 1.8 1.872 0 2.593 0.36 3.816 1.584 2.592 0 6.479 0.071991 7.128 1.656l1.296 2.592c1.729 0 6.271 2.455 7.704 6.048h0.28799c0.647 0.64801 1.008 2.592 1.656 3.24 0 1.44-8.712 2.448-10.656 2.664-10.44 1.08-22.464 0.144-33.336 0.144 0 0-12.384-0.864-13.536-1.584l-1.944-1.512z" fill="#ff7f00" stroke="#000"/>
 </g>
</svg>
